<svg xmlns="http://www.w3.org/2000/svg" viewBox="0 0 400 500" font-family="system-ui, -apple-system, sans-serif">
  <!-- Background -->
  <rect width="400" height="500" fill="#0a0a0a"/>

  <!-- Header -->
  <rect width="400" height="50" fill="#141414"/>
  <text x="20" y="32" fill="white" font-size="14" font-weight="bold">Demand Strike</text>
  <circle cx="370" cy="25" r="15" fill="#2563eb"/>
  <text x="366" y="30" fill="white" font-size="11">JL</text>

  <!-- Tabs -->
  <rect x="0" y="50" width="400" height="40" fill="#141414"/>
  <rect x="15" y="60" width="60" height="24" rx="4" fill="#2563eb"/>
  <text x="30" y="77" fill="white" font-size="12">Tasks</text>
  <text x="95" y="77" fill="#666" font-size="12">Campaigns</text>
  <text x="185" y="77" fill="#666" font-size="12">Reports</text>

  <!-- New Task button -->
  <rect x="300" y="58" width="85" height="28" rx="6" fill="#2563eb"/>
  <text x="315" y="77" fill="white" font-size="11">+ New Task</text>

  <!-- Filters -->
  <rect x="15" y="105" width="80" height="28" rx="4" fill="#1e1e1e" stroke="#333" stroke-width="1"/>
  <text x="25" y="124" fill="#888" font-size="11">Status ▼</text>
  <rect x="105" y="105" width="80" height="28" rx="4" fill="#1e1e1e" stroke="#333" stroke-width="1"/>
  <text x="115" y="124" fill="#888" font-size="11">Project ▼</text>
  <rect x="280" y="105" width="105" height="28" rx="4" fill="#1e1e1e" stroke="#333" stroke-width="1"/>
  <text x="295" y="124" fill="#666" font-size="11">🔍 Search...</text>

  <!-- Table header -->
  <rect x="15" y="150" width="370" height="35" fill="#1e1e1e"/>
  <text x="45" y="173" fill="#888" font-size="11">Title</text>
  <text x="200" y="173" fill="#888" font-size="11">Status</text>
  <text x="280" y="173" fill="#888" font-size="11">Priority</text>
  <text x="355" y="173" fill="#888" font-size="11"></text>

  <!-- Table rows -->
  <!-- Row 1 -->
  <rect x="15" y="185" width="370" height="45" fill="#141414"/>
  <rect x="25" y="200" width="14" height="14" rx="2" fill="none" stroke="#444" stroke-width="1"/>
  <text x="50" y="213" fill="#ccc" font-size="12">Investigate bounce rates</text>
  <circle cx="210" cy="207" r="5" fill="#4ade80"/>
  <text x="222" y="213" fill="#ccc" font-size="11">Open</text>
  <rect x="280" y="198" width="45" height="18" rx="3" fill="#7c2d12"/>
  <text x="290" y="211" fill="#fdba74" font-size="10">High</text>
  <text x="355" y="213" fill="#666" font-size="12">▶</text>

  <!-- Row 2 -->
  <rect x="15" y="230" width="370" height="45" fill="#0a0a0a"/>
  <rect x="25" y="245" width="14" height="14" rx="2" fill="none" stroke="#444" stroke-width="1"/>
  <text x="50" y="258" fill="#ccc" font-size="12">Q1 campaign review</text>
  <circle cx="210" cy="252" r="5" fill="#4ade80"/>
  <text x="222" y="258" fill="#ccc" font-size="11">Open</text>
  <rect x="280" y="243" width="50" height="18" rx="3" fill="#1e3a5f"/>
  <text x="288" y="256" fill="#93c5fd" font-size="10">Medium</text>
  <text x="355" y="258" fill="#666" font-size="12">▶</text>

  <!-- Row 3 -->
  <rect x="15" y="275" width="370" height="45" fill="#141414"/>
  <rect x="25" y="290" width="14" height="14" rx="2" fill="none" stroke="#444" stroke-width="1"/>
  <text x="50" y="303" fill="#888" font-size="12">Update nurture sequence</text>
  <circle cx="210" cy="297" r="5" fill="#666"/>
  <text x="222" y="303" fill="#888" font-size="11">Done</text>
  <rect x="280" y="288" width="38" height="18" rx="3" fill="#1e1e1e"/>
  <text x="289" y="301" fill="#888" font-size="10">Low</text>
  <text x="355" y="303" fill="#666" font-size="12">▶</text>

  <!-- Row 4 -->
  <rect x="15" y="320" width="370" height="45" fill="#0a0a0a"/>
  <rect x="25" y="335" width="14" height="14" rx="2" fill="none" stroke="#444" stroke-width="1"/>
  <text x="50" y="348" fill="#ccc" font-size="12">Fix unsubscribe flow</text>
  <circle cx="210" cy="342" r="5" fill="#4ade80"/>
  <text x="222" y="348" fill="#ccc" font-size="11">Open</text>
  <rect x="280" y="333" width="45" height="18" rx="3" fill="#7c2d12"/>
  <text x="290" y="346" fill="#fdba74" font-size="10">High</text>
  <text x="355" y="348" fill="#666" font-size="12">▶</text>

  <!-- Tachikoma suggestion -->
  <rect x="15" y="385" width="370" height="45" rx="8" fill="#1a1a2e" stroke="#2563eb" stroke-width="1"/>
  <text x="35" y="413" fill="#ccc" font-size="11">💡 Tachikoma: 3 tasks could be auto-closed</text>
  <rect x="310" y="398" width="55" height="22" rx="4" fill="#2563eb"/>
  <text x="322" y="414" fill="white" font-size="10">Review</text>

  <!-- Pagination -->
  <text x="270" y="455" fill="#666" font-size="11">Showing 4 of 12</text>
  <rect x="345" y="440" width="20" height="24" rx="4" fill="#1e1e1e"/>
  <text x="351" y="457" fill="#888" font-size="11">&lt;</text>
  <rect x="368" y="440" width="20" height="24" rx="4" fill="#1e1e1e"/>
  <text x="374" y="457" fill="#888" font-size="11">&gt;</text>

  <!-- Label -->
  <text x="200" y="495" fill="#666" font-size="10" text-anchor="middle">CRUD MODE</text>
</svg>