<svg xmlns="http://www.w3.org/2000/svg" viewBox="0 0 800 500" font-family="system-ui, -apple-system, sans-serif">
  <!-- Background -->
  <rect width="800" height="500" fill="#0a0a0a"/>

  <!-- Header -->
  <rect width="800" height="50" fill="#141414"/>
  <text x="25" y="32" fill="#2563eb" font-size="16" font-weight="bold">Tachi</text>
  <text x="85" y="32" fill="#666" font-size="14">/ demand-strike</text>

  <!-- User avatar -->
  <circle cx="760" cy="25" r="16" fill="#2563eb"/>
  <text x="754" y="30" fill="white" font-size="11">JC</text>

  <!-- Tab bar -->
  <rect x="0" y="50" width="800" height="40" fill="#1a1a1a"/>
  <rect x="20" y="58" width="65" height="26" rx="4" fill="#2563eb"/>
  <text x="35" y="76" fill="white" font-size="11">Config</text>
  <text x="105" y="76" fill="#888" font-size="11">Skills</text>
  <text x="160" y="76" fill="#888" font-size="11">Data</text>
  <text x="210" y="76" fill="#888" font-size="11">Preview</text>

  <!-- Publish button -->
  <rect x="700" y="58" width="75" height="26" rx="4" fill="#16a34a"/>
  <text x="717" y="76" fill="white" font-size="11">Publish</text>

  <!-- Sidebar - File tree -->
  <rect x="0" y="90" width="180" height="410" fill="#141414"/>

  <text x="20" y="120" fill="#888" font-size="11">Files</text>

  <!-- File list -->
  <rect x="10" y="132" width="160" height="28" rx="4" fill="#2563eb22"/>
  <circle cx="28" cy="146" r="4" fill="#4ade80"/>
  <text x="42" y="151" fill="#2563eb" font-size="12">PROMPT.md</text>

  <circle cx="28" cy="176" r="4" fill="#888"/>
  <text x="42" y="181" fill="#888" font-size="12">schema.yaml</text>

  <circle cx="28" cy="206" r="4" fill="#888"/>
  <text x="42" y="211" fill="#888" font-size="12">motoko.yaml</text>

  <!-- Section divider -->
  <line x1="20" y1="235" x2="160" y2="235" stroke="#333" stroke-width="1"/>

  <text x="20" y="260" fill="#888" font-size="11">Skills (4)</text>
  <text x="30" y="285" fill="#666" font-size="11">◆ marketo-deliverability</text>
  <text x="30" y="305" fill="#666" font-size="11">◆ marketo-engagement</text>
  <text x="30" y="325" fill="#666" font-size="11">◆ marketo-email-decay</text>
  <text x="30" y="345" fill="#666" font-size="11">◆ marketo-inactive</text>

  <line x1="20" y1="365" x2="160" y2="365" stroke="#333" stroke-width="1"/>

  <text x="20" y="390" fill="#888" font-size="11">Data Sources (1)</text>
  <text x="30" y="415" fill="#666" font-size="11">◇ ishikawa-marketo</text>

  <!-- Main editor area -->
  <rect x="190" y="100" width="600" height="390" rx="8" fill="#141414"/>

  <!-- Editor header -->
  <rect x="190" y="100" width="600" height="35" rx="8" fill="#1e1e1e"/>
  <rect x="190" y="120" width="600" height="15" fill="#1e1e1e"/>
  <text x="210" y="123" fill="#4ade80" font-size="12">● PROMPT.md</text>
  <text x="680" y="123" fill="#666" font-size="10">Auto-saved ✓</text>

  <!-- Editor content - PROMPT.md -->
  <text x="210" y="165" fill="#888" font-size="11">1</text>
  <text x="240" y="165" fill="#c084fc" font-size="13"># Demand Strike</text>

  <text x="210" y="190" fill="#888" font-size="11">2</text>

  <text x="210" y="215" fill="#888" font-size="11">3</text>
  <text x="240" y="215" fill="#ccc" font-size="13">You are a marketing operations analyst specializing in</text>

  <text x="210" y="240" fill="#888" font-size="11">4</text>
  <text x="240" y="240" fill="#ccc" font-size="13">email deliverability, Marketo administration, and campaign</text>

  <text x="210" y="265" fill="#888" font-size="11">5</text>
  <text x="240" y="265" fill="#ccc" font-size="13">performance analysis.</text>

  <text x="210" y="290" fill="#888" font-size="11">6</text>

  <text x="210" y="315" fill="#888" font-size="11">7</text>
  <text x="240" y="315" fill="#c084fc" font-size="13">## Your Purpose</text>

  <text x="210" y="340" fill="#888" font-size="11">8</text>

  <text x="210" y="365" fill="#888" font-size="11">9</text>
  <text x="240" y="365" fill="#ccc" font-size="13">Help marketing ops teams:</text>

  <text x="210" y="390" fill="#888" font-size="11">10</text>
  <text x="240" y="390" fill="#ccc" font-size="13">- Audit email deliverability and bounce rates</text>

  <text x="210" y="415" fill="#888" font-size="11">11</text>
  <text x="240" y="415" fill="#ccc" font-size="13">- Analyze engagement patterns and trends</text>

  <text x="210" y="440" fill="#888" font-size="11">12</text>
  <text x="240" y="440" fill="#ccc" font-size="13">- Identify lifecycle bottlenecks</text>

  <text x="210" y="465" fill="#888" font-size="11">13</text>
  <text x="240" y="465" fill="#ccc" font-size="13">- Optimize programs and campaigns</text>

  <!-- Cursor blink line -->
  <rect x="478" y="453" width="2" height="16" fill="#2563eb"/>

  <!-- Label -->
  <text x="400" y="495" fill="#666" font-size="10" text-anchor="middle">DEVELOPER MODE — Edit. Save. Live.</text>
</svg>